<svg width="463" height="356" viewBox="0 0 463 356" fill="none" xmlns="http://www.w3.org/2000/svg">
<path d="M428.356 -218.297C407.804 -249.253 380.519 -275.901 351.491 -299.946C337.055 -311.988 322.166 -323.298 307.08 -334.714C298.589 -341.115 287.378 -343.122 278.166 -338.196C221.701 -361.755 155.716 -363.59 95.9327 -350.249C15.7193 -332.283 -57.4451 -289.287 -120.074 -240.865C-172.535 -200.394 -218.671 -150.66 -242.692 -90.4872C-255.037 -59.5433 -259.891 -25.6655 -256.435 7.07156C-252.084 48.1012 -237.771 86.8045 -220.286 124.408C-187.994 193.78 -141.364 257.567 -85.1379 311.997C-59.6042 336.604 -25.0594 364.23 14.5984 353.113C54.2563 341.997 75.6263 300.29 88.7418 266.832C95.0994 250.849 98.9954 234.396 101.485 217.674C104.333 199.314 104.666 190.096 108.747 173.132C109.578 169.674 110.45 166.36 111.477 163.008C111.991 161.331 112.546 159.8 113.215 158.085C113.101 158.268 113.997 156.187 114.48 154.983C115.005 153.923 115.942 151.986 115.984 152.131C116.736 150.705 117.643 149.241 118.55 147.776C119.457 146.312 120.405 144.991 121.467 143.488C121.849 143.084 121.92 142.756 122.189 142.534C122.457 142.313 122.726 142.091 123.107 141.686C129.268 135.971 131.528 134.015 140.019 130.042C140.907 129.666 141.331 129.406 141.754 129.146C142.219 129.03 142.839 128.876 143.769 128.644C145.939 128.103 147.913 127.457 150.083 126.917C152.253 126.376 154.464 125.98 156.521 125.623C156.521 125.623 162.423 124.772 161.606 124.821C200.306 120.756 238.513 133.999 277.297 130.223C316.587 126.475 351.217 108.87 378.801 82.9558C406.003 57.4463 425.347 25.998 439.714 -7.15268C454.308 -40.6695 463.044 -77.2173 462.01 -113.654C461.161 -150.602 449.272 -186.658 428.356 -218.297ZM408.852 -64.649C401.204 -32.3976 389.069 -4.75749 369.77 22.8092C361.161 35.0172 352.816 44.6822 340.215 55.7171C337.418 58.1169 334.579 60.3722 331.74 62.6275C331.049 63.1095 330.667 63.5142 330.244 63.7745C329.82 64.0348 329.397 64.295 328.705 64.7769C327.322 65.7408 326.052 66.5217 324.668 67.4856C317.936 71.7945 310.685 75.4583 303.352 78.8332C302.773 79.132 302.153 79.2865 301.885 79.5081C301.42 79.624 300.955 79.7398 300.376 80.0387C298.868 80.5692 297.36 81.0997 295.81 81.4858C291.821 82.634 287.988 83.7436 283.874 84.4585C276.351 86.0227 270.634 86.3627 260.823 86.3292C242.016 86.2135 223.194 83.1602 204.55 81.3011C166.009 77.2753 124.639 80.1474 94.5106 105.302C68.7891 126.727 61.8438 159.113 57.4687 189.465C56.9898 192.991 56.5109 196.516 55.9186 200.225C55.6734 201.679 55.5831 203.095 55.3379 204.55C55.3795 204.694 54.9307 207.748 54.8289 208.547C53.7577 215.781 52.3348 222.948 50.5603 230.048C46.3542 246.578 41.1603 260.258 33.4031 274.267C29.8287 280.886 25.7477 287.476 21.3451 293.527C21.4584 293.344 18.1894 297.565 18.4578 297.343C17.581 298.335 16.7042 299.328 15.8274 300.32C14.4138 301.756 13.0002 303.192 11.39 304.522C10.585 305.187 9.93484 305.814 9.12973 306.479C8.97474 306.517 8.8614 306.7 8.55139 306.778C7.01291 307.78 5.5878 308.599 3.96602 309.313C3.38764 309.612 2.61263 309.805 2.30263 309.882C1.83762 309.998 -3.13409 310.617 -2.27577 310.713C-3.09244 310.761 -3.95074 310.665 -4.9224 310.753C-5.27405 310.685 -5.58405 310.763 -5.89407 310.84C-6.04906 310.878 -6.24571 310.773 -6.44235 310.667C-8.20061 310.331 -10.0421 309.705 -11.8004 309.369C-12.152 309.302 -12.5037 309.235 -12.8553 309.167C-14.7385 308.398 -16.6633 307.484 -18.6298 306.425C-27.2405 301.912 -27.9554 301.161 -34.7593 295.424C-41.2833 290.082 -47.3122 284.152 -53.2994 278.366C-66.4654 265.543 -79.1362 252.132 -91.1153 238.24C-113.084 212.745 -134.835 182.243 -152.491 152.113C-170.749 121.05 -185.002 91.7766 -196.213 58.6486C-201.819 42.0846 -206.684 23.4782 -208.463 7.50946C-209.328 -1.25511 -209.686 -9.99105 -209.58 -18.8428C-209.566 -22.2525 -209.355 -25.5564 -208.99 -28.8988C-208.798 -31.1142 -208.564 -33.1852 -208.372 -35.4007C-208.229 -36.0557 -208.199 -36.5277 -208.282 -36.8166C-208.21 -37.1441 -208.18 -37.6161 -208.037 -38.2711C-205.459 -52.3832 -201.63 -66.1876 -196.198 -79.6172C-195.828 -80.6384 -193.811 -85.1664 -193.811 -85.1664C-192.503 -88.1241 -191.041 -91.1203 -189.537 -93.9722C-186.005 -100.736 -182.12 -107.432 -177.998 -113.878C-174.215 -119.774 -170.236 -125.565 -166.06 -131.25C-163.781 -134.295 -161.461 -137.195 -159.182 -140.24C-159.068 -140.423 -158.573 -141.011 -158.192 -141.416C-156.82 -142.996 -155.448 -144.576 -154.231 -146.118C-144.287 -157.729 -133.474 -168.629 -122.071 -179.21C-110.668 -189.792 -98.7462 -199.728 -86.3897 -209.309C-83.2411 -211.641 -80.134 -214.118 -77.0987 -216.268C-76.1386 -216.971 -75.1785 -217.675 -74.2184 -218.379C-73.795 -218.639 -72.6799 -219.381 -72.5666 -219.564C-65.3808 -224.605 -58.3085 -229.463 -50.8845 -234.254C-18.7315 -255.268 15.0896 -274.53 51.0598 -289.217C67.1339 -295.698 86.5996 -301.94 104.818 -306.168C113.23 -308.108 121.725 -309.76 130.149 -311.084C132.05 -311.402 133.797 -311.683 135.74 -311.857C136.402 -311.867 137.332 -312.099 137.487 -312.137C142.501 -312.612 147.514 -313.086 152.569 -313.416C186.755 -315.273 214.841 -312.36 246.85 -301.598C258.996 -297.501 273.495 -290.429 286.693 -282.104C291.537 -279.13 297.235 -278.382 302.899 -279.483C321.661 -265.112 339.07 -250.249 355.22 -233.989C377.524 -211.365 397.263 -184.387 406.634 -155.91C416.339 -126.278 415.957 -94.7523 408.852 -64.649Z" fill="white" fill-opacity="0.05"/>
</svg>
