<svg width="487" height="925" viewBox="0 0 487 925" fill="none" xmlns="http://www.w3.org/2000/svg">
<path d="M896.716 101.512C882.731 65.7763 858.202 32.3794 821.866 13.4722C780.297 -8.30631 730.134 -0.0461166 692.641 24.8755C677.395 34.9584 663.748 47.6367 652.54 61.6147C621.666 79.8351 587.048 90.9341 550.692 101.126C504.975 114.006 457.871 124.728 415.3 145.24C373.361 165.543 337.212 193.692 315.283 233.334C305.34 251.309 298.925 271.55 298.089 291.889C297.154 315.74 303.701 337.686 312.261 360.056C315.934 369.469 320.703 381.371 322.603 389.576C323.231 392.261 324.297 398.866 324.607 403.103C324.759 404.46 324.732 405.682 324.883 407.039C324.833 406.586 324.972 404.898 324.9 407.189C324.846 409.632 324.467 412.104 324.089 414.576C323.66 416.596 323.231 418.616 322.802 420.636C322.69 421.103 322.579 421.571 322.596 421.721C322.45 421.887 322.322 422.203 322.065 422.836C320.235 426.965 318.225 430.958 315.891 434.981C315.908 435.132 315.746 435.147 315.763 435.298C315.344 435.945 314.909 436.442 314.49 437.09C313.2 438.732 311.927 440.525 310.475 442.181C307.732 445.48 304.649 448.657 301.37 451.548C301.353 451.397 298.817 453.611 298.22 454.122C296.41 455.507 294.6 456.892 292.773 458.126C288.666 460.941 284.543 463.604 280.241 466.132C279.319 466.674 278.235 467.23 277.152 467.787C277.152 467.787 276.23 468.328 275.76 468.524C275.129 468.734 274.514 469.095 274.514 469.095C273.43 469.652 272.492 470.043 271.408 470.599C266.893 472.689 262.182 474.493 257.455 476.145C234.305 484.364 210.76 487.591 185.952 491.239C139.236 498.116 91.812 505.973 53.2249 532.823C18.1294 557.22 -6.26443 596.783 2.18496 638.664C10.847 680.982 44.2701 716.305 86.049 734.103C130.735 753.006 244.775 722.5 292.773 719.77C387.472 714.43 428 820.331 485.5 916.361C485.5 981.59 572.716 626.062 608.514 599.163C626.033 585.977 643.481 575.082 662.273 567.416C682.78 558.983 704.367 552.889 725.562 546.221C769.557 532.585 811.995 515.284 842.088 481.291C869.421 450.447 884.091 411.776 893.523 373.129C903.993 330.579 910.174 286.289 912.986 242.613C915.733 195.439 914.176 146.375 896.716 101.512Z" fill="white" fill-opacity="0.05"/>
</svg>
