<svg width="418" height="423" viewBox="0 0 418 423" fill="none" xmlns="http://www.w3.org/2000/svg">
<path d="M363.931 54.9281C349.74 38.6018 332.383 23.5939 312.189 13.859C288.719 2.60299 262.411 -0.540543 236.322 0.574914C191.02 2.50161 146.155 16.1913 108.604 39.8187C29.7895 89.3044 -11.8008 178.642 2.9359 265.851C9.9222 307.224 30.8811 347.685 63.6294 376.788C96.4868 405.993 141.898 423.739 187.636 422.927C192.767 422.826 198.006 422.42 203.137 421.913C205.757 422.42 208.486 422.522 211.215 422.015C294.505 409.136 367.861 354.378 400.391 282.076C433.903 207.34 418.402 117.596 363.931 54.9281ZM385.217 200.444C385.217 204.805 384.999 209.165 384.672 213.526C384.453 215.858 384.235 218.089 384.017 220.421C383.907 221.435 383.798 222.449 383.689 223.463C383.689 223.869 383.58 224.072 383.58 224.275C383.58 224.376 383.58 224.478 383.471 224.782C382.052 233.604 380.087 242.426 377.467 251.046C376.157 255.508 374.629 259.868 372.882 264.228C372.118 266.155 371.354 267.98 370.59 269.806C370.262 270.414 370.044 271.124 369.716 271.732C369.607 271.935 368.516 274.267 368.516 274.369C364.695 282.278 360.329 289.884 355.416 297.286C353.015 300.836 350.613 304.385 347.993 307.833C346.793 309.455 345.483 311.077 344.282 312.7C344.391 312.497 343.081 314.221 342.535 314.83C341.99 315.438 341.116 316.553 341.007 316.655C335.003 323.652 328.563 330.243 321.686 336.429C318.411 339.37 315.136 342.209 311.643 344.947C310.005 346.265 308.368 347.583 306.731 348.8C305.748 349.612 304.657 350.321 303.674 351.133C303.347 351.437 303.128 351.538 302.91 351.741C302.91 351.741 302.692 351.842 302.583 352.045C295.16 357.318 287.409 362.186 279.331 366.546C271.035 371.109 262.521 375.166 253.678 378.816C253.46 378.918 252.696 379.222 252.369 379.323C251.604 379.627 250.949 379.83 250.185 380.134C248.002 380.946 245.71 381.757 243.417 382.568C238.942 384.089 234.357 385.509 229.772 386.726C226.497 387.638 223.223 388.45 219.948 389.159C217.655 388.754 215.145 388.754 212.743 389.362C210.232 389.869 207.722 390.376 205.211 390.883C204.119 391.086 202.919 391.289 201.827 391.39C201.39 391.492 201.172 391.492 201.063 391.492C200.845 391.492 200.517 391.492 200.299 391.593C195.168 392.1 190.147 392.405 185.016 392.405C174.1 392.405 167.332 391.695 158.054 389.869C137.64 385.813 122.14 379.729 104.783 368.777C90.7013 359.955 75.3096 345.454 65.5943 332.271C53.4774 315.844 46.0545 300.734 40.2689 282.38C37.5399 273.456 35.3567 264.431 33.9376 255.203C33.9376 254.899 33.7193 253.784 33.7193 253.682C33.6101 252.364 33.3918 250.944 33.2826 249.626C33.0643 247.496 32.846 245.266 32.7368 243.136C32.4093 237.863 32.3002 232.691 32.3002 227.418C32.6277 207.948 35.2475 192.129 41.4697 172.761C47.4736 154.204 55.1148 138.587 66.6859 121.653C77.4928 105.935 90.0463 92.3466 106.093 79.4681C135.348 55.8407 172.135 39.9201 211.87 33.3288C220.712 31.9091 228.899 31.0979 239.597 30.7936C251.168 30.4894 262.302 30.7936 272.782 32.8217C292.976 36.7765 309.023 46.1058 323.76 59.2885C327.362 62.5334 330.855 65.8798 334.13 69.3276C335.767 71.0515 337.405 72.7754 338.933 74.6007C339.588 75.4119 340.352 76.2231 341.007 77.0344C341.444 77.5414 341.662 77.7442 341.771 77.8456C341.88 78.0484 342.099 78.2513 342.535 78.7583C348.103 85.7552 353.233 92.955 357.818 100.56C360.219 104.617 362.512 108.673 364.695 112.83C365.678 114.656 366.551 116.582 367.424 118.408C367.533 118.712 367.752 119.016 367.861 119.219C368.516 120.537 369.062 121.957 369.607 123.275C373.1 131.59 376.048 140.21 378.449 148.829C379.65 153.088 380.633 157.347 381.506 161.606C381.943 163.837 382.379 166.17 382.816 168.4C383.034 169.415 383.143 170.429 383.252 171.443C383.252 171.645 383.362 171.848 383.362 171.848C383.362 172.051 383.362 172.254 383.471 172.761C384.672 181.989 385.327 191.217 385.217 200.444Z" fill="#C4C4C4" fill-opacity="0.03"/>
</svg>
