<svg width="1619" height="143" viewBox="0 0 1619 143" fill="none" xmlns="http://www.w3.org/2000/svg">
<path d="M200.204 393.004C254.747 394.081 309.337 394.54 363.409 394.349C370.414 395.292 377.734 395.811 385.1 395.712C481.457 394.017 570.732 396.16 668.978 399.449C766.66 402.706 864.27 406.934 961.482 408.922C1059.26 410.944 1156.89 411.096 1249.85 405.568C1341.96 400.167 1432.72 390.168 1499.83 370.804C1615.83 337.474 1648.52 279.134 1591.08 226.134C1532.3 172.169 1386.44 128.331 1218.34 109.328C1133.02 99.7086 1045.28 95.9724 961.798 99.5759C871.79 103.416 787.806 113.725 693.889 113.082C693.608 113.066 690.777 113.077 689.649 113.01C687.952 112.999 686.261 112.9 684.564 112.889C679.197 112.751 673.836 112.525 668.476 112.298C656.628 111.78 644.8 110.996 632.985 110.036C631.576 109.953 625.678 109.341 623.43 109.121C621.183 108.9 616.131 108.337 614.728 108.166C605.188 107.074 595.666 105.717 586.145 104.36C578.027 103.175 569.921 101.812 561.816 100.45C557.904 99.777 553.717 98.9993 549.812 98.2382L549.53 98.2217C547.296 97.8246 545.068 97.3393 542.84 96.8539C525.837 93.3738 509.418 89.6622 493.575 85.8071C428.257 69.9182 369.653 51.322 304.912 35.2897C237.393 18.5626 160.619 4.48189 79.6409 1.14296C-11.501 -2.52718 -95.0841 6.21011 -162.742 21.4658C-304.388 53.3777 -373.878 111.86 -377.676 169.947C-381.309 225.829 -324.885 288.517 -195.377 335.294C-130.073 358.892 -49.3034 376.309 41.7358 385.113C94.5718 390.078 147.64 391.954 200.204 393.004Z" fill="white" fill-opacity="0.03"/>
</svg>
