<svg width="344" height="261" viewBox="0 0 344 261" fill="none" xmlns="http://www.w3.org/2000/svg">
<path d="M153.412 154.572C147.587 143.929 141.167 133.706 133.883 123.803C126.741 114.01 111.266 124.665 118.407 134.459C124.746 142.974 130.476 151.787 135.485 161.03C137.967 165.47 142.825 168.233 148.011 166.312C152.589 164.69 155.894 159.012 153.412 154.572Z" fill="#393D3F"/>
<path d="M184.479 116.869C177.604 104.975 170.729 93.081 163.869 81.3081C161.405 76.9909 156.539 74.1075 151.359 76.0276C147.042 77.6277 143.485 83.3257 146.092 87.7529C152.967 99.6471 159.841 111.541 166.701 123.314C169.165 127.631 174.032 130.515 179.212 128.595C183.529 126.995 187.07 121.175 184.479 116.869Z" fill="#393D3F"/>
<path d="M214.474 176.255C210.04 167.454 205.463 158.543 201.029 149.743C195.606 139.19 177.663 145.405 183.116 156.199C187.55 165 192.127 173.911 196.561 182.712C201.999 193.386 219.927 187.05 214.474 176.255Z" fill="#393D3F"/>
<path d="M220.772 92.0317C215.527 84.0327 210.282 76.0337 205.18 68.1449C202.456 63.8478 195.549 63.3451 191.614 66.015C187.213 69.0931 186.974 74.5052 189.698 78.8022C194.943 86.8012 200.188 94.8002 205.29 102.689C208.014 106.986 214.921 107.489 218.856 104.819C223.257 101.741 223.496 96.3287 220.772 92.0317Z" fill="#393D3F"/>
<path d="M252.074 147.786C248.744 141.704 245.527 135.49 242.197 129.408C239.842 124.956 234.727 122.215 229.666 124.125C225.214 125.737 221.908 131.415 224.391 135.856C227.721 141.938 230.938 148.152 234.268 154.234C236.623 158.686 241.738 161.427 246.799 159.517C251.265 158.026 254.444 152.359 252.074 147.786Z" fill="#393D3F"/>
<path d="M174.016 193.442C172.384 191.745 170.994 189.904 169.588 187.942C169.445 187.832 169.43 187.71 169.415 187.589C169.243 187.236 168.927 186.773 168.739 186.299C168.221 185.241 167.688 184.061 167.283 182.87C165.436 178.372 159.403 175.586 154.733 177.585C149.936 179.595 147.431 184.471 149.45 189.322C151.529 194.658 154.602 199.663 158.624 203.972C162.045 207.598 167.945 209.293 172.209 206.103C175.75 203.344 177.594 197.299 174.016 193.442Z" fill="#393D3F"/>
<path d="M114.508 183.111C109.453 174.488 105.02 165.688 101.196 156.59C96.6238 145.598 78.7025 151.932 83.2898 163.046C87.114 172.144 91.5613 181.065 96.6019 189.567C99.1935 193.873 103.933 196.768 109.114 194.848C113.573 193.358 117.115 187.539 114.508 183.111Z" fill="#393D3F"/>
<path d="M272.184 91.8325C267.86 82.8977 262.912 74.1396 257.498 65.7895C254.776 61.4933 247.872 60.9907 243.94 63.6601C239.414 66.7486 239.303 72.1486 242.025 76.4448C246.509 83.5281 250.64 90.8872 254.274 98.4118C259.573 108.977 277.513 102.64 272.184 91.8325Z" fill="#393D3F"/>
<path d="M184.292 36.5954L175.86 20.54C173.505 16.0881 168.388 13.3466 163.326 15.2568C158.745 16.8801 155.694 22.5369 158.049 26.9887C160.907 32.3772 163.638 37.7768 166.481 43.0441C168.837 47.4959 173.953 50.2375 179.016 48.3273C183.468 46.7151 186.648 41.0472 184.292 36.5954Z" fill="#393D3F"/>
<path d="M133.426 51.008C129.798 45.6843 126.297 40.3496 122.668 35.026C119.829 30.8597 113.154 30.2133 109.087 32.8954C104.681 35.9747 104.314 41.4001 107.168 45.6877C110.797 51.0113 114.298 56.3461 117.927 61.6697C120.766 65.836 127.441 66.4823 131.508 63.8002C135.914 60.721 136.281 55.2956 133.426 51.008Z" fill="#393D3F"/>
<path d="M111.684 94.671L105.25 84.4401C102.665 80.2507 95.4599 79.5274 91.6617 82.3091C87.2831 85.6317 86.9837 90.5619 89.7419 95.1041L96.1755 105.335C98.7609 109.524 105.966 110.248 109.764 107.466C114.143 104.143 114.442 99.2132 111.684 94.671Z" fill="#393D3F"/>
<path d="M298.411 142.391C296.315 139.017 294.203 135.522 292.106 132.149C289.521 127.959 282.316 127.236 278.517 130.018C274.139 133.34 273.84 138.271 276.598 142.813C278.694 146.186 280.806 149.681 282.903 153.055C285.488 157.244 292.693 157.967 296.492 155.186C300.998 151.852 301.298 146.922 298.411 142.391Z" fill="#393D3F"/>
<path d="M238.825 209.926C237.157 206.883 235.489 203.84 233.934 200.665C231.59 196.332 226.421 193.225 221.381 195.379C216.952 197.235 213.595 202.553 216.097 207.117C217.765 210.16 219.433 213.203 220.988 216.379C223.332 220.711 228.501 223.818 233.541 221.664C237.985 219.93 241.342 214.612 238.825 209.926Z" fill="#393D3F"/>
<path d="M139.711 238.424L133.192 223.186C131.207 218.581 125.484 216.138 120.666 217.904C115.848 219.67 113.408 225.028 115.393 229.633L121.912 244.871C123.898 249.476 129.62 251.919 134.438 250.153C139.256 248.387 141.697 243.029 139.711 238.424Z" fill="#393D3F"/>
<path d="M235.03 24.8199C233.407 22.1405 231.783 19.4611 230.287 16.7706C229.152 14.9072 226.125 13.4531 224.017 13.1456C221.637 12.739 218.593 13.2483 216.709 14.7607C214.809 16.1518 213.255 18.2486 213.026 20.5982C212.699 23.2017 213.465 25.2197 214.916 27.5463C216.54 30.2256 218.164 32.905 219.66 35.5955C220.795 37.459 223.821 38.913 225.93 39.2206C228.31 39.6272 231.353 39.1178 233.238 37.6054C235.138 36.2143 236.692 34.1175 236.921 31.7679C237.119 29.1756 236.353 27.1575 235.03 24.8199Z" fill="#393D3F"/>
<path d="M314.366 70.3659C305.06 53.2996 295.148 36.531 284.755 20.0491C278.35 9.83185 262.924 20.602 269.314 30.6981C278.892 45.7817 287.989 61.1519 296.479 76.8199C298.828 81.2682 303.802 84.0187 308.977 82.0992C313.417 80.4884 316.714 74.8141 314.366 70.3659Z" fill="#393D3F"/>
<path d="M88.1849 238.752C78.4712 222.578 68.7725 206.524 59.0589 190.349C56.4696 186.044 49.4666 185.674 45.5269 188.22C40.8818 191.318 41.0254 196.694 43.6147 200.999C53.3283 217.174 63.0271 233.227 72.7407 249.402C75.33 253.707 82.333 254.078 86.2726 251.531C90.9177 248.433 90.7742 243.058 88.1849 238.752Z" fill="#393D3F"/>
<path d="M38.7431 161.237C37.0752 158.194 35.5203 155.019 33.8524 151.976C31.6363 147.632 26.2114 144.547 21.2999 146.69C16.8707 148.546 13.5141 153.864 16.016 158.428C17.6839 161.471 19.2388 164.646 20.9067 167.689C23.1228 172.033 28.5477 175.118 33.4591 172.975C37.7753 171.252 41.117 165.812 38.7431 161.237Z" fill="#393D3F"/>
<path d="M61.3303 125.988C48.8841 127.067 51.1272 145.283 63.5733 144.204C75.8912 143.136 73.6481 124.92 61.3303 125.988Z" fill="#393D3F"/>
<path d="M318.64 98.8353C306.193 99.9143 308.436 118.131 320.883 117.052C333.33 115.973 331.087 97.7562 318.64 98.8353Z" fill="#393D3F"/>
</svg>
