<svg width="42" height="42" viewBox="0 0 42 42" fill="none" xmlns="http://www.w3.org/2000/svg">
<g clip-path="url(#clip0)">
<path d="M1.96985 22.972C1.96985 22.4257 2.41058 21.9912 2.9527 21.9912H7.96216C8.50428 21.9912 8.94502 22.4257 8.94502 22.972C8.94502 29.6161 14.3559 35.027 21.0021 35.027C27.6482 35.027 33.0591 29.6161 33.0591 22.972C33.0591 16.3217 27.6503 10.917 21.0021 10.917C20.2985 10.917 19.595 10.9749 18.8998 11.1012V14.5091C18.8998 14.9084 18.6598 15.2685 18.2977 15.4174C17.9231 15.5685 17.5052 15.4816 17.2196 15.2022L7.2214 8.42985C6.84067 8.04706 6.84067 7.43252 7.2214 7.04972L17.2217 0.287674C17.5031 0.00626714 17.9211 -0.0764996 18.2956 0.0724806C18.6577 0.225599 18.8977 0.581496 18.8977 0.978777V4.05563C19.6012 3.977 20.3048 3.93769 21 3.93769C31.4928 3.93769 40.0322 12.4772 40.0322 22.9699C40.0322 33.4606 31.4928 42.0001 21 42.0001C10.5093 42.0021 1.96985 33.4627 1.96985 22.972Z" fill="#C8C9CA" fill-opacity="0.7"/>
</g>
<defs>
<clipPath id="clip0">
<rect width="42" height="42" fill="white"/>
</clipPath>
</defs>
</svg>
